<?xml version="1.0" standalone="no"?>
<!DOCTYPE svg PUBLIC "-//W3C//DTD SVG 20010904//EN"
 "http://www.w3.org/TR/2001/REC-SVG-20010904/DTD/svg10.dtd">
<svg version="1.0" xmlns="http://www.w3.org/2000/svg"
 width="620.000000pt" height="875.000000pt" viewBox="0 0 620.000000 875.000000"
 preserveAspectRatio="xMidYMid meet">

<g transform="translate(0.000000,875.000000) scale(0.100000,-0.100000)"
fill="#000000" stroke="none">
<path d="M3185 5881 c-93 -23 -192 -87 -350 -225 -60 -54 -137 -112 -170 -131
-73 -41 -195 -70 -195 -46 0 5 17 12 37 16 55 10 122 47 204 113 118 93 118
92 8 92 -175 0 -275 -30 -327 -98 -23 -31 -27 -46 -30 -116 -3 -87 51 -563 65
-577 12 -12 231 6 330 27 168 34 369 125 479 214 258 213 593 367 887 410 93
14 113 7 30 -10 -127 -26 -336 -103 -490 -180 -240 -121 -309 -175 -608 -476
-248 -250 -344 -340 -410 -387 -16 -12 30 41 103 118 72 77 132 143 132 147 0
4 -10 4 -23 -1 -12 -5 -67 -17 -122 -26 -110 -19 -208 -15 -286 11 l-46 15
-19 154 c-9 85 -21 159 -24 165 -4 6 -73 11 -176 13 -153 2 -173 0 -214 -19
-102 -47 -146 -132 -137 -263 6 -101 31 -171 92 -260 109 -161 290 -247 468
-222 124 17 218 58 412 177 233 144 370 220 640 356 342 172 391 208 614 458
56 63 136 145 176 182 41 37 71 69 67 71 -44 25 -215 24 -313 -2 -78 -20 -259
-91 -347 -135 l-48 -24 -53 141 c-91 241 -121 286 -210 316 -37 12 -99 13
-146 2z m73 -253 c21 -21 15 -67 -12 -79 -42 -20 -74 9 -66 61 4 29 55 41 78
18z m-186 -53 c26 -58 -40 -104 -76 -53 -20 28 -20 43 0 62 24 25 63 20 76 -9z"/>
<path d="M2977 4954 c-148 -62 -221 -77 -392 -78 l-160 -1 4 -40 c2 -22 9 -43
15 -47 19 -13 191 -9 273 7 43 8 113 27 157 41 78 26 95 39 158 119 23 30 19
30 -55 -1z"/>
</g>
</svg>
