<?xml version="1.0" standalone="no"?>
<!DOCTYPE svg PUBLIC "-//W3C//DTD SVG 20010904//EN"
 "http://www.w3.org/TR/2001/REC-SVG-20010904/DTD/svg10.dtd">
<svg version="1.0" xmlns="http://www.w3.org/2000/svg"
 width="350.000000pt" height="194.000000pt" viewBox="0 0 350.000000 194.000000"
 preserveAspectRatio="xMidYMid meet">

<g transform="translate(0.000000,194.000000) scale(0.100000,-0.100000)"
fill="#000000" stroke="none">
<path d="M2164 1405 c-32 -49 7 -105 60 -85 53 20 37 110 -19 110 -15 0 -31
-10 -41 -25z"/>
<path d="M320 1179 c-25 -5 -55 -12 -67 -15 -33 -7 -28 -24 7 -24 17 0 33 -6
36 -13 3 -10 -65 -279 -102 -400 -5 -16 0 -18 36 -15 l43 3 36 107 c20 58 54
132 75 163 44 67 116 140 145 148 45 12 44 -14 -9 -215 -29 -106 -53 -197 -53
-202 -1 -5 16 -9 37 -9 l39 0 32 99 c17 54 44 122 59 150 52 97 157 197 186
179 16 -10 12 -38 -31 -207 -22 -89 -39 -175 -37 -192 3 -29 6 -31 45 -34 38
-3 47 1 88 39 48 45 71 77 61 87 -3 3 -22 -13 -42 -36 -31 -37 -74 -56 -74
-34 0 4 20 83 45 174 50 185 53 217 27 241 -50 46 -146 -6 -229 -122 -58 -80
-60 -80 -38 -7 19 63 19 111 -1 130 -19 20 -66 21 -102 2 -33 -17 -109 -96
-147 -154 -15 -23 -30 -41 -31 -39 -2 2 9 49 25 105 32 116 36 110 -59 91z"/>
<path d="M1108 1176 c-62 -12 -86 -26 -46 -26 51 0 52 -15 3 -210 -27 -109
-42 -192 -39 -207 9 -32 46 -46 93 -33 46 12 103 71 171 175 29 44 50 69 46
55 -3 -14 -14 -62 -23 -108 -21 -99 -15 -116 44 -120 37 -3 44 1 92 53 28 31
51 61 51 66 0 19 -18 8 -49 -32 -34 -42 -69 -50 -63 -14 2 11 26 104 53 207
27 103 49 192 49 198 0 5 -17 10 -38 10 l-39 0 -38 -100 c-73 -194 -235 -395
-261 -325 -5 12 63 310 92 408 6 20 -10 21 -98 3z"/>
<path d="M1695 1157 c-49 -49 -49 -101 -1 -177 19 -30 47 -75 63 -100 52 -84
28 -160 -52 -160 -48 0 -82 33 -101 97 -9 30 -19 51 -24 46 -8 -8 -31 -165
-25 -171 2 -2 12 2 24 9 16 11 32 11 80 1 120 -25 211 32 211 131 0 44 -15 77
-82 171 -53 76 -62 121 -30 149 45 41 115 4 133 -69 6 -24 15 -44 19 -44 5 0
11 19 15 43 3 23 9 57 12 76 5 31 4 33 -13 26 -21 -9 -20 -9 -121 1 l-72 7
-36 -36z"/>
<path d="M2103 1177 c-61 -9 -86 -27 -40 -27 53 -1 53 -7 4 -192 -26 -95 -47
-186 -47 -201 0 -27 30 -67 50 -67 30 0 81 33 113 72 49 60 47 84 -2 30 -36
-39 -64 -52 -75 -34 -2 4 9 54 25 110 15 57 42 153 58 213 l29 109 -26 -1
c-15 -1 -55 -6 -89 -12z"/>
<path d="M2502 1160 c-185 -93 -259 -358 -123 -443 77 -47 197 -21 275 62 43
44 25 49 -29 8 -63 -48 -105 -62 -149 -47 -51 17 -70 53 -69 130 3 152 106
300 210 300 43 0 57 -13 44 -38 -17 -32 -13 -60 9 -72 43 -23 86 16 74 66 -17
69 -138 86 -242 34z"/>
<path d="M3011 1168 c-114 -56 -210 -202 -219 -331 -4 -67 -2 -75 22 -104 34
-40 88 -51 142 -28 45 19 72 42 127 110 30 37 38 44 33 25 -4 -14 -9 -48 -13
-76 -5 -45 -3 -53 14 -62 36 -20 78 2 142 71 47 50 31 60 -19 12 -31 -30 -43
-36 -52 -27 -11 11 18 143 89 410 5 22 3 23 -33 20 -32 -2 -40 -7 -42 -26 l-4
-23 -23 25 c-31 34 -101 36 -164 4z m137 -14 c47 -33 16 -181 -62 -297 -63
-95 -132 -129 -182 -93 -15 12 -19 26 -18 73 1 104 79 256 158 307 46 30 72
32 104 10z"/>
</g>
</svg>
